<?xml version="1.0" encoding="UTF-8"?>
<!DOCTYPE svg PUBLIC "-//W3C//DTD SVG 1.1//EN" "http://www.w3.org/Graphics/SVG/1.1/DTD/svg11.dtd">
<svg xmlns="http://www.w3.org/2000/svg" version="1.1" width="96px" height="96px" style="shape-rendering:geometricPrecision; text-rendering:geometricPrecision; image-rendering:optimizeQuality; fill-rule:evenodd; clip-rule:evenodd" xmlns:xlink="http://www.w3.org/1999/xlink">
<g><path style="opacity:0.896" fill="#d08d46" d="M 22.5,18.5 C 39.17,18.3334 55.8367,18.5001 72.5,19C 79.4172,20.253 83.2505,24.4197 84,31.5C 84.6667,41.5 84.6667,51.5 84,61.5C 83.5042,67.6663 80.3375,71.833 74.5,74C 65.8333,74.3333 57.1667,74.6667 48.5,75C 44.7998,79.0352 40.7998,82.7019 36.5,86C 32.9785,88.4276 30.1452,87.9276 28,84.5C 27.5017,81.1832 27.335,77.8499 27.5,74.5C 20.1174,75.2279 14.9507,72.2279 12,65.5C 11.3333,52.8333 11.3333,40.1667 12,27.5C 14.0523,22.7356 17.5523,19.7356 22.5,18.5 Z M 23.5,25.5 C 40.2616,25.0291 56.9282,25.5291 73.5,27C 75.4875,28.3189 76.6541,30.1523 77,32.5C 77.6667,41.8333 77.6667,51.1667 77,60.5C 76.5943,63.4944 75.0943,65.661 72.5,67C 63.5,67.3333 54.5,67.6667 45.5,68C 42,71.5 38.5,75 35,78.5C 34.6667,75.5 34.3333,72.5 34,69.5C 33.5,69 33,68.5 32.5,68C 28.3808,67.8568 24.3808,67.1901 20.5,66C 19.1367,64.0551 18.3034,61.8884 18,59.5C 17.1355,49.4483 17.4688,39.4483 19,29.5C 20.3968,27.9297 21.8968,26.5964 23.5,25.5 Z"/></g>
</svg>
