<?xml version="1.0" encoding="UTF-8"?>
<!DOCTYPE svg PUBLIC "-//W3C//DTD SVG 1.1//EN" "http://www.w3.org/Graphics/SVG/1.1/DTD/svg11.dtd">
<svg xmlns="http://www.w3.org/2000/svg" version="1.1" width="96px" height="96px" style="shape-rendering:geometricPrecision; text-rendering:geometricPrecision; image-rendering:optimizeQuality; fill-rule:evenodd; clip-rule:evenodd" xmlns:xlink="http://www.w3.org/1999/xlink">
<g><path style="opacity:0.902" fill="#d08d46" d="M 40.5,7.5 C 45.43,7.19749 50.2633,7.53082 55,8.5C 53.67,14.3623 52.8367,20.3623 52.5,26.5C 54.0378,46.3762 64.7045,58.0428 84.5,61.5C 84.8333,62.5 85.1667,63.5 85.5,64.5C 81.2764,75.2198 73.6098,82.3865 62.5,86C 38.1027,91.7177 20.936,83.2177 11,60.5C 5.42409,33.977 15.2574,16.3104 40.5,7.5 Z M 42.5,14.5 C 43.8333,14.5 45.1667,14.5 46.5,14.5C 41.6421,40.6287 51.6421,58.1287 76.5,67C 65.4857,80.4479 51.819,84.1145 35.5,78C 17.1794,67.0386 12.0127,51.5386 20,31.5C 25.3721,22.9544 32.8721,17.2877 42.5,14.5 Z"/></g>
</svg>
